<svg class="svg-icon" style="width: 1em; height: 1em;vertical-align: middle;fill: currentColor;overflow: hidden;" viewBox="0 0 1024 1024" version="1.1" xmlns="http://www.w3.org/2000/svg"><path d="M779.3 228.2h-113v-35.4c0-34.9-28.4-63.3-63.3-63.3H425c-34.9 0-63.3 28.4-63.3 63.3v35.4h-113c-32.9 0-59.7 26.8-59.7 59.7v38.5c0 32.9 26.8 59.7 59.7 59.7h1.8v412.8c0 54.1 44 98.1 98.1 98.1h330.9c54.1 0 98.1-44 98.1-98.1V386.1h1.8c32.9 0 59.7-26.8 59.7-59.7v-38.5c-0.1-32.9-26.8-59.7-59.8-59.7z m-374.9-35.4c0-11.4 9.2-20.6 20.6-20.6h178c11.4 0 20.6 9.2 20.6 20.6v35.4H404.4v-35.4z m330.4 606c0 30.5-24.8 55.4-55.4 55.4H348.5c-30.5 0-55.4-24.8-55.4-55.4V386.1h441.7v412.7z m61.5-472.4c0 9.4-7.6 17-17 17H248.7c-9.4 0-17-7.6-17-17v-38.5c0-9.4 7.6-17 17-17h530.7c9.4 0 17 7.6 17 17v38.5z"  /><path d="M377.9 462.3h42.7v317.5h-42.7zM492.6 462.3h42.7v317.5h-42.7zM607.4 462.3h42.7v317.5h-42.7z"  /></svg>